<svg xmlns="http://www.w3.org/2000/svg" width="29.679" height="27.938" viewBox="0 0 29.679 27.938">
  <g id="headset-svgrepo-com" transform="translate(0 -15.02)">
    <g id="Group_34" data-name="Group 34" transform="translate(3.301 15.02)">
      <path id="Path_135" data-name="Path 135" d="M242.439,390.4a.834.834,0,1,1,0-1.669,9.8,9.8,0,0,0,6.992-2.922.834.834,0,1,1,1.184,1.176A11.453,11.453,0,0,1,242.439,390.4Z" transform="translate(-230.901 -364.085)" fill="#14306f"/>
      <path id="Path_136" data-name="Path 136" d="M79.194,30.633a.834.834,0,0,1-.834-.834V26.558a9.869,9.869,0,0,0-19.738,0,.834.834,0,0,1-1.669,0,11.538,11.538,0,1,1,23.076,0V29.8A.834.834,0,0,1,79.194,30.633Z" transform="translate(-56.952 -15.02)" fill="#14306f"/>
    </g>
    <path id="Path_137" data-name="Path 137" d="M220.432,430.631h-1.258a1.6,1.6,0,0,1-1.6-1.6h0a1.6,1.6,0,0,1,1.6-1.6h1.258a1.6,1.6,0,0,1,1.6,1.6h0A1.6,1.6,0,0,1,220.432,430.631Z" transform="translate(-204.964 -388.508)" fill="#ec7b13"/>
    <path id="Path_138" data-name="Path 138" d="M206.872,417.906h-1.258a2.433,2.433,0,1,1,0-4.866h1.258a2.433,2.433,0,1,1,0,4.866Zm-1.258-3.2a.764.764,0,0,0,0,1.528h1.258a.764.764,0,0,0,0-1.528Z" transform="translate(-191.403 -374.948)" fill="#14306f"/>
    <path id="Path_139" data-name="Path 139" d="M19.093,209.306H16.556a2.161,2.161,0,0,1-2.161-2.161v-2.4a2.161,2.161,0,0,1,2.161-2.161h2.537Z" transform="translate(-13.561 -176.688)" fill="#ec7b13"/>
    <path id="Path_140" data-name="Path 140" d="M5.533,196.581H3a3,3,0,0,1-3-3v-2.4a3,3,0,0,1,3-3H5.532a.834.834,0,0,1,.834.834v6.726A.835.835,0,0,1,5.533,196.581ZM3,189.855a1.328,1.328,0,0,0-1.327,1.327v2.4A1.328,1.328,0,0,0,3,194.912H4.7v-5.057Z" transform="translate(0 -163.128)" fill="#14306f"/>
    <path id="Path_141" data-name="Path 141" d="M74.927,192.813h0a1.753,1.753,0,0,1-1.748-1.748v-5.393a1.753,1.753,0,0,1,1.748-1.748h0a1.753,1.753,0,0,1,1.748,1.748v5.393A1.753,1.753,0,0,1,74.927,192.813Z" transform="translate(-68.937 -159.113)" fill="#ec7b13"/>
    <path id="Path_142" data-name="Path 142" d="M61.366,180.086a2.586,2.586,0,0,1-2.583-2.583v-5.393a2.583,2.583,0,1,1,5.166,0V177.5A2.586,2.586,0,0,1,61.366,180.086Zm0-8.889a.915.915,0,0,0-.914.914V177.5a.914.914,0,1,0,1.828,0v-5.393A.915.915,0,0,0,61.366,171.2Z" transform="translate(-55.376 -145.552)" fill="#14306f"/>
    <path id="Path_143" data-name="Path 143" d="M416.557,209.306h2.537a2.161,2.161,0,0,0,2.161-2.161v-2.4a2.161,2.161,0,0,0-2.161-2.161h-2.537Z" transform="translate(-392.411 -176.688)" fill="#ec7b13"/>
    <path id="Path_144" data-name="Path 144" d="M405.533,196.582H403a.834.834,0,0,1-.834-.834v-6.726a.834.834,0,0,1,.834-.834h2.537a3,3,0,0,1,3,3v2.4A3,3,0,0,1,405.533,196.582Zm-1.7-1.669h1.7a1.328,1.328,0,0,0,1.327-1.327v-2.4a1.328,1.328,0,0,0-1.327-1.327h-1.7Z" transform="translate(-378.85 -163.129)" fill="#14306f"/>
    <path id="Path_145" data-name="Path 145" d="M380.249,192.813h0A1.753,1.753,0,0,0,382,191.065v-5.393a1.753,1.753,0,0,0-1.748-1.748h0a1.753,1.753,0,0,0-1.748,1.748v5.393A1.753,1.753,0,0,0,380.249,192.813Z" transform="translate(-356.561 -159.113)" fill="#ec7b13"/>
    <path id="Path_146" data-name="Path 146" d="M366.688,180.086a2.586,2.586,0,0,1-2.583-2.583v-5.393a2.583,2.583,0,1,1,5.165,0V177.5A2.586,2.586,0,0,1,366.688,180.086Zm0-8.889a.915.915,0,0,0-.914.914V177.5a.914.914,0,1,0,1.828,0v-5.393A.915.915,0,0,0,366.688,171.2Z" transform="translate(-342.999 -145.552)" fill="#14306f"/>
  </g>
</svg>
